<svg width="744" height="133" viewBox="0 0 744 133" fill="none" xmlns="http://www.w3.org/2000/svg">
<path d="M754.88 77C754.88 78.4728 756.074 79.6667 757.546 79.6667C759.019 79.6667 760.213 78.4728 760.213 77C760.213 75.5272 759.019 74.3333 757.546 74.3333C756.074 74.3333 754.88 75.5272 754.88 77ZM696.316 32C696.316 33.4728 697.51 34.6667 698.983 34.6667C700.456 34.6667 701.65 33.4728 701.65 32C701.65 30.5272 700.456 29.3333 698.983 29.3333C697.51 29.3333 696.316 30.5272 696.316 32ZM757.851 76.6035L699.288 31.6035L698.678 32.3965L757.242 77.3965L757.851 76.6035Z" fill="#5796E1" fill-opacity="0.1"/>
<path d="M360.075 114C360.075 115.473 361.269 116.667 362.742 116.667C364.214 116.667 365.408 115.473 365.408 114C365.408 112.527 364.214 111.333 362.742 111.333C361.269 111.333 360.075 112.527 360.075 114ZM306.38 77C306.38 78.4728 307.574 79.6667 309.046 79.6667C310.519 79.6667 311.713 78.4728 311.713 77C311.713 75.5272 310.519 74.3333 309.046 74.3333C307.574 74.3333 306.38 75.5272 306.38 77ZM363.025 113.588L309.33 76.5883L308.763 77.4117L362.458 114.412L363.025 113.588Z" fill="#5796E1" fill-opacity="0.1"/>
<path d="M135.749 113.932C135.666 115.402 136.793 116.625 138.265 116.663C139.737 116.701 140.998 115.54 141.08 114.069C141.163 112.599 140.036 111.376 138.564 111.338C137.092 111.3 135.831 112.461 135.749 113.932ZM81.7953 77.0658C81.7127 78.5363 82.8392 79.7592 84.3115 79.7972C85.7837 79.8353 87.0442 78.6742 87.1268 77.2037C87.2095 75.7333 86.0829 74.5104 84.6107 74.4723C83.1384 74.4342 81.8779 75.5954 81.7953 77.0658ZM138.706 113.586L84.7524 76.7201L84.1698 77.5495L138.123 114.415L138.706 113.586Z" fill="#5796E1" fill-opacity="0.1"/>
<path d="M82.0526 77C82.0526 78.4728 83.2465 79.6667 84.7192 79.6667C86.192 79.6667 87.3859 78.4728 87.3859 77C87.3859 75.5272 86.192 74.3333 84.7192 74.3333C83.2465 74.3333 82.0526 75.5272 82.0526 77ZM23.5843 40C23.5843 41.4728 24.7782 42.6667 26.251 42.6667C27.7237 42.6667 28.9176 41.4728 28.9176 40C28.9176 38.5272 27.7237 37.3333 26.251 37.3333C24.7782 37.3333 23.5843 38.5272 23.5843 40ZM84.9866 76.5775L26.5183 39.5775L25.9836 40.4225L84.4519 77.4225L84.9866 76.5775Z" fill="#5796E1" fill-opacity="0.1"/>
<path d="M421.478 76.7411C421.783 78.1818 420.842 79.4657 419.377 79.6087C417.911 79.7517 416.475 78.6997 416.17 77.2589C415.864 75.8182 416.805 74.5343 418.271 74.3913C419.737 74.2483 421.172 75.3003 421.478 76.7411ZM479.946 39.7411C480.251 41.1818 479.311 42.4657 477.845 42.6087C476.379 42.7517 474.943 41.6997 474.638 40.2589C474.333 38.8182 475.273 37.5343 476.739 37.3913C478.205 37.2483 479.641 38.3003 479.946 39.7411ZM418.515 76.5801L476.983 39.5801L477.601 40.4199L419.133 77.4199L418.515 76.5801Z" fill="#5796E1" fill-opacity="0.1"/>
<path d="M365.396 113.741C365.701 115.182 364.761 116.466 363.295 116.609C361.829 116.752 360.393 115.7 360.088 114.259C359.783 112.818 360.723 111.534 362.189 111.391C363.655 111.248 365.091 112.3 365.396 113.741ZM421.478 76.7411C421.783 78.1818 420.842 79.4657 419.377 79.6087C417.911 79.7517 416.475 78.6997 416.17 77.2589C415.864 75.8182 416.805 74.5343 418.271 74.3913C419.737 74.2483 421.172 75.3003 421.478 76.7411ZM362.426 113.585L418.508 76.5846L419.14 77.4154L363.058 114.415L362.426 113.585Z" fill="#5796E1" fill-opacity="0.1"/>
<path d="M253.232 113.741C253.538 115.182 252.597 116.466 251.131 116.609C249.665 116.752 248.229 115.7 247.924 114.259C247.619 112.818 248.559 111.534 250.025 111.391C251.491 111.248 252.927 112.3 253.232 113.741ZM311.7 76.7411C312.006 78.1818 311.065 79.4657 309.599 79.6087C308.133 79.7517 306.698 78.6997 306.392 77.2589C306.087 75.8182 307.028 74.5343 308.494 74.3913C309.959 74.2483 311.395 75.3003 311.7 76.7411ZM250.269 113.58L308.738 76.5801L309.355 77.4199L250.887 114.42L250.269 113.58Z" fill="#5796E1" fill-opacity="0.1"/>
<path d="M645.46 61.4972C644.241 62.3241 642.265 62.3241 641.046 61.4972C639.828 60.6703 639.828 59.3297 641.046 58.5028C642.265 57.6759 644.241 57.6759 645.46 58.5028C646.679 59.3297 646.679 60.6703 645.46 61.4972ZM701.19 33.4972C699.971 34.3241 697.995 34.3241 696.776 33.4972C695.557 32.6703 695.557 31.3297 696.776 30.5028C697.995 29.6759 699.971 29.6759 701.19 30.5028C702.408 31.3297 702.408 32.6703 701.19 33.4972ZM642.905 59.681L698.635 31.681L699.331 32.319L643.601 60.319L642.905 59.681Z" fill="#5796E1" fill-opacity="0.1"/>
<path d="M591.525 41.5172C590.306 42.3441 588.33 42.3441 587.111 41.5172C585.893 40.6903 585.893 39.3497 587.111 38.5228C588.33 37.696 590.306 37.696 591.525 38.5228C592.743 39.3497 592.743 40.6903 591.525 41.5172ZM645.46 61.4972C644.241 62.3241 642.265 62.3241 641.047 61.4972C639.828 60.6703 639.828 59.3297 641.047 58.5028C642.265 57.6759 644.241 57.6759 645.46 58.5028C646.679 59.3297 646.679 60.6703 645.46 61.4972ZM589.598 39.6716L643.534 59.6516L642.973 60.3484L589.038 40.3685L589.598 39.6716Z" fill="#5796E1" fill-opacity="0.1"/>
<path d="M533.194 41.4972C531.976 42.3241 530 42.3241 528.781 41.4972C527.562 40.6703 527.562 39.3297 528.781 38.5028C530 37.6759 531.976 37.6759 533.194 38.5028C534.413 39.3297 534.413 40.6703 533.194 41.4972ZM591.663 41.4972C590.444 42.3241 588.468 42.3241 587.249 41.4972C586.03 40.6703 586.03 39.3297 587.249 38.5028C588.468 37.6759 590.444 37.6759 591.663 38.5028C592.881 39.3297 592.881 40.6703 591.663 41.4972ZM530.988 39.603L589.456 39.603V40.397L530.988 40.397V39.603Z" fill="#5796E1" fill-opacity="0.1"/>
<path d="M479.341 41.5172C478.122 42.3441 476.146 42.3441 474.928 41.5172C473.709 40.6903 473.709 39.3497 474.928 38.5228C476.146 37.696 478.122 37.696 479.341 38.5228C480.56 39.3497 480.56 40.6903 479.341 41.5172ZM533.194 41.4972C531.975 42.3241 529.999 42.3241 528.78 41.4972C527.562 40.6703 527.562 39.3297 528.78 38.5028C529.999 37.6759 531.975 37.6759 533.194 38.5028C534.412 39.3297 534.412 40.6703 533.194 41.4972ZM477.134 39.623L530.987 39.603L530.987 40.397L477.135 40.417L477.134 39.623Z" fill="#5796E1" fill-opacity="0.1"/>
<path d="M196.704 115.497C195.485 116.324 193.509 116.324 192.29 115.497C191.071 114.67 191.071 113.33 192.29 112.503C193.509 111.676 195.485 111.676 196.704 112.503C197.922 113.33 197.922 114.67 196.704 115.497ZM252.785 115.497C251.567 116.324 249.591 116.324 248.372 115.497C247.153 114.67 247.153 113.33 248.372 112.503C249.591 111.676 251.567 111.676 252.785 112.503C254.004 113.33 254.004 114.67 252.785 115.497ZM194.497 113.603L250.579 113.603L250.579 114.397L194.497 114.397V113.603Z" fill="#5796E1" fill-opacity="0.1"/>
<path d="M140.622 115.497C139.403 116.324 137.427 116.324 136.208 115.497C134.99 114.67 134.99 113.33 136.208 112.503C137.427 111.676 139.403 111.676 140.622 112.503C141.841 113.33 141.841 114.67 140.622 115.497ZM196.704 115.497C195.485 116.324 193.509 116.324 192.29 115.497C191.072 114.67 191.072 113.33 192.29 112.503C193.509 111.676 195.485 111.676 196.704 112.503C197.922 113.33 197.922 114.67 196.704 115.497ZM138.415 113.603L194.497 113.603L194.497 114.397L138.415 114.397V113.603Z" fill="#5796E1" fill-opacity="0.1"/>
<path d="M28.4577 41.4972C27.239 42.3241 25.263 42.3241 24.0443 41.4972C22.8255 40.6703 22.8255 39.3297 24.0443 38.5028C25.263 37.6759 27.239 37.6759 28.4577 38.5028C29.6764 39.3297 29.6764 40.6703 28.4577 41.4972ZM-7.68112e-05 39.603L26.251 39.603V40.397L-7.83895e-05 40.397L-7.68112e-05 39.603Z" fill="#5796E1" fill-opacity="0.1"/>
</svg>
